<?xml version="1.0" encoding="utf-8"?>
<!-- Generator: Adobe Illustrator 22.1.0, SVG Export Plug-In . SVG Version: 6.00 Build 0)  -->
<svg version="1.1" xmlns="http://www.w3.org/2000/svg" xmlns:xlink="http://www.w3.org/1999/xlink" x="0px" y="0px"
	 viewBox="0 0 500 500" style="enable-background:new 0 0 500 500;" xml:space="preserve">
<style type="text/css">
	.st0{fill:#6EE1FF;}
	.st1{fill:#827DDC;}
	.st2{fill:#FA968C;}
	.st3{fill:#A5A0AA;}
	.st4{fill:#FAB9AF;}
	.st5{fill:#F57A2F;}
	.st6{fill:#0091C8;}
	.st7{fill:#FF965A;}
	.st8{fill:#F07D4B;}
	.st9{fill:#FF8C46;}
	.st10{fill:#FFBE82;}
	.st11{fill:#828291;}
	.st12{fill:#757582;}
	.st13{fill:#41378C;}
	.st14{fill:none;stroke:#5046AF;stroke-width:2.0668;stroke-linecap:round;stroke-miterlimit:10;}
	.st15{fill:none;stroke:#9F9FFF;stroke-width:2.0668;stroke-linecap:round;stroke-miterlimit:10;}
	.st16{fill:#5046AF;}
	.st17{fill:#FFFFFF;}
	.st18{fill:none;stroke:#827DDC;stroke-width:0.9879;stroke-miterlimit:10;}
	.st19{fill:#A5C8CD;}
	.st20{fill:#B4D7DC;}
	.st21{fill:#823264;}
	.st22{fill:#FFAA50;}
	.st23{fill:#9B14AA;}
	.st24{fill:#05CDFF;}
	.st25{fill:#FAC855;}
	.st26{fill:#39AE96;}
	.st27{fill:#1C9585;}
	.st28{fill:#46738C;}
	.st29{fill:#41B4E6;}
	.st30{fill:#695A6E;}
	.st31{fill:#614C69;}
	.st32{fill:#AAC85A;}
	.st33{fill:#82BE50;}
	.st34{fill:#CD5014;}
	.st35{fill:#FA735F;}
	.st36{fill:#C8E6EB;}
	.st37{fill:#41A0D7;}
</style>
<g id="BACKGROUND">
	<g>
		<circle class="st0" cx="249.6" cy="249.7" r="143.1"/>
		<path class="st1" d="M423.3,263c-10.4-19.6-12.2-42.7-5-64.1c4.7-13.8,5.5-35.1,1.6-49.3c-12.5-45.5-70.3-72.6-126.1-52.3
			c-51.1,18.6-63.6,95.1-102.9,86.8c-92.3-19.6-125.5,46.2-120.7,99.8c3.1,34.6,32.2,77.4,94.1,72.9c18.2-1.3,36.2,3.2,51.6,12.1
			c26.4,15.3,68.3,18.8,111.8,6.9c65.5-18,109.9-64.4,99.1-103.5C426.1,269,424.8,265.9,423.3,263z"/>
	</g>
</g>
<g id="OBJECTS">
	<g>
		<g>
			<g>
				<path class="st2" d="M343.7,111.7c0.1-1.4,2.5-4.2,2.1-4.6c-0.3-0.3-1.2,0.6-1.7,1.1c-0.1,0.1-0.1,0.1-0.2,0.1
					c-0.1,0-0.1-0.1-0.1-0.2c-0.1-1.4-0.5-5.2-0.8-5.3c-0.4,0-0.6,2.4-0.6,3.2c0,0,0,0,0,0c0,0,0,0-0.1,0c-0.3-0.9-1.3-3.7-1.7-3.3
					c-0.4,0.3,0.2,3,0.5,4c0,0,0,0.1,0,0.1c0,0-0.1,0-0.1,0c-0.5-0.9-1.9-3.3-2.3-3c-0.4,0.3,0.7,2.8,1.1,3.7c0,0,0,0.1,0,0.1
					c0,0-0.1,0-0.1,0c-0.6-0.7-2.2-2.4-2.1-1.9c0,0.6,2.7,5.8,3.6,6.7C341.9,113.3,343.7,111.7,343.7,111.7z"/>
				<path class="st2" d="M368.2,129c-1.9,4.1-4.5,8.8-7.7,12c-6.3,6.2-14.3,4.6-17.1-9.9c-0.5-2.2-0.8-4.4-1.1-6.5
					c-0.6-4.3-0.8-8.7-1-13c0-0.7,0.5-1.2,1.1-1.2c0.6,0,1.1,0.4,1.2,0.9l0,0c0.9,4.2,1.7,8.4,2.8,12.4c0.6,2,1.1,4,1.8,6
					c0.6,1.8,3,7.5,4.8,8.1c0.1,0,0.1,0.1,0.2,0c0,0,0.1,0,0.1,0c0,0,0.1-0.1,0.1-0.1c0.1-0.1,0.2-0.1,0.4-0.3
					c0.4-0.3,1-0.8,1.5-1.4c1.1-1.3,2.1-2.9,2.9-4.7c1.5-3,2.4-5.1,2.4-5.1c1.9-5.1,9.6-2.7,7.8,2.5
					C368.3,128.8,368.3,128.9,368.2,129z"/>
				<path class="st3" d="M355.8,134.5C355.8,134.5,355.8,134.5,355.8,134.5c1-1.4,1.8-2.9,2.7-4.4c0.8-1.4,1.6-3.1,2.2-4.4l0-0.1
					c0-0.1,0.1-0.2,0.2-0.3c1.1-2,3.6-2.8,5.6-1.7c2,1.1,2.8,3.6,1.7,5.6c-1,1.9-2,3.4-3.1,5.1c-0.7,1.1-1.5,2.1-2.4,3.2
					C362.1,136.8,357.2,135.1,355.8,134.5z"/>
				<path class="st4" d="M359.8,163.3c3.6,4.1,24.4,5.9,24.4,5.9c1.5-1.8-0.7-9.9-1.2-18.1c-0.6-8.9-0.9-18.7-1.1-24
					c-0.1-2.2-1.9-3.9-4-3.9h-13.2c-2,0-3.7,1.6-3.9,3.6c-0.3,4.2-0.9,11.5-1.5,18.6C358.6,152.6,356.7,159.7,359.8,163.3z"/>
				<path class="st2" d="M371.8,232.3l0,8.2l0.7,4c0.1,0.7-0.4,1.3-1.1,1.3c-3.3,0.1-11.9,0.3-12.1,0c-1.1-1.7,3.8-2.4,7.4-3.8
					c3.6-1.4,1.1-14.9,1.1-14.9L371.8,232.3z"/>
				<path class="st5" d="M366.6,242C366.6,242,366.7,242,366.6,242c0.9,0.3,1.9,0.5,2.9,0.5c0.9,0,1.8-0.1,2.5-0.4l0.4,2.4
					c0.1,0.7-0.4,1.3-1.1,1.3c-3.3,0.1-11.9,0.3-12.1,0C358.2,244.1,363.1,243.4,366.6,242z"/>
				<path class="st6" d="M359.8,166.3c-0.1,5.7,2.1,41.7,6.5,41.8c4.4,0.1,9.3-35.8,9.5-41.5c0.1-5.7-3.3-10.4-7.8-10.5
					C363.6,156.1,360,160.6,359.8,166.3z"/>
				<path class="st7" d="M372.5,200.6c0.4,3.1,0.5,23.2-0.2,33.3h-4c-2.2-9.9-4.5-29-4.9-32.1c0,0,0-0.1,0-0.1
					c-2.4-10.6-3.6-31.3-3.5-35.5c0.1-5.7,3.8-10.2,8.2-10.1c4.4,0.1,7.9,4.8,7.8,10.5C375.7,170.2,372.2,199.1,372.5,200.6z"/>
				<path class="st8" d="M371.8,216.5c0.1-2.2-0.1-4.3-0.7-6.3c-1.6-6-1.6-12.3-1-18.5c0.1-0.5,0.1-1,0.1-1.6
					c0.4-8.1-4-15.5-10.3-20.1c-0.1-1.7-0.1-3-0.1-3.8c0.1-5.7,3.8-10.2,8.2-10.1c4.4,0.1,7.9,4.8,7.8,10.5
					c-0.1,3.6-3.6,32.5-3.4,34c0.4,3.1,0.5,23.2-0.2,33.3h-4c-0.3-1.2-0.5-2.5-0.8-3.8C370,226.2,371.6,221.5,371.8,216.5z"/>
				<path class="st2" d="M381.5,232.3l0,8.2l0.7,4c0.1,0.7-0.4,1.3-1.1,1.3c-3.3,0.1-11.9,0.3-12.1,0c-1.1-1.7,3.8-2.4,7.4-3.8
					c3.6-1.4,1.1-14.9,1.1-14.9L381.5,232.3z"/>
				<path class="st9" d="M376.3,242C376.3,242,376.3,242,376.3,242c0.9,0.3,1.9,0.5,2.9,0.5c0.9,0,1.8-0.1,2.5-0.4l0.4,2.4
					c0.1,0.7-0.4,1.3-1.1,1.3c-3.3,0.1-11.9,0.3-12.1,0C367.8,244.1,372.7,243.4,376.3,242z"/>
				<path class="st6" d="M369.5,166.3c-0.1,5.7,2.1,41.7,6.5,41.8c4.4,0.1,8.4-35.9,8.5-41.6s-2.4-10.2-6.8-10.3
					C373.3,156.1,369.6,160.6,369.5,166.3z"/>
				<path class="st10" d="M382.1,200.6c0.4,3.1,0.5,23.2-0.2,33.3h-4c-2.2-9.9-4.5-29-4.9-32.1c0,0,0-0.1,0-0.1
					c-2.4-10.6-4.5-31.4-4.5-35.6c0.1-5.7,4.8-10.1,9.2-10c4.4,0.1,6.9,4.7,6.8,10.3C384.4,170.1,381.9,199.1,382.1,200.6z"/>
				<path class="st11" d="M364.5,123.2h2.1c0.7,1.7,2.3,3.1,4.8,3.1c2.5,0,4-1.3,4.8-3.1h2c2,0,3.6,1.6,3.7,3.6
					c0.1,5.2,0.5,15.2,1.1,24.3c0.5,8.2,2.8,15.8,1.2,18.1c0,0-20.8-1.7-24.4-5.9c-3.1-3.6-1.2-10.7-0.6-17.9
					c0.6-7.2,1.2-14.6,1.6-18.8C360.9,124.7,362.6,123.2,364.5,123.2z"/>
				<path class="st12" d="M379.5,135c0.2-4.2-0.9-8.3-2.9-11.8h1.5c2,0,3.6,1.6,3.7,3.6c0.1,5.2,0.5,15.2,1.1,24.3
					c0.5,8.2,2.8,15.8,1.2,18.1c0,0-20.8-1.7-24.4-5.9c-0.8-0.9-1.3-2.1-1.5-3.5C370.4,157.9,379,147.3,379.5,135z"/>
				<path class="st13" d="M372,118.4l0.2,0.1c1.9,0.4,3.7-0.8,4.2-2.7l1.1-5l-3.7-0.8L372,118.4z"/>
				<g>
					<polygon class="st4" points="368.8,123.2 375.7,123.2 373.7,116.3 369,116.9 					"/>
				</g>
				<path class="st2" d="M369,116.9l4.7-0.6l0.9,3.2c-1.1,1.2-2.6,3-4.3,3c-0.5,0-1-0.2-1.5-0.4L369,116.9z"/>
				<path class="st4" d="M368.3,120.5L368.3,120.5c3.1,0.7,6.2-1.3,6.9-4.4l1.4-6.2l-9.6-2.1c0,0-1.1,4.9-1.1,8.3
					C365.7,118.7,366.7,120.2,368.3,120.5z"/>
				
					<rect x="374.6" y="112.2" transform="matrix(-0.9762 -0.2171 0.2171 -0.9762 717.5576 304.0702)" class="st13" width="1.9" height="0.8"/>
				<path class="st4" d="M373.7,114.6c-0.3,1.2,0.1,2.3,0.8,2.5c0.7,0.2,1.9-1.3,2.1-2.5c0.3-1.2-0.4-1.8-1.2-1.9
					C374.8,112.5,374,113.4,373.7,114.6z"/>
				<path class="st13" d="M365.6,110.2c-0.1-0.8,0.1-1.7,0.4-2.4l0,0c0.8-1.9,2.9-2.7,4.9-2.1c0.2,0.1,0.4,0.1,0.6,0.2l3.2,0.7
					c2,0.4,3.2,2.4,2.7,4.3l-0.2,0.8l-1.9,1.1l-0.8,1.4l-0.1,0c-0.6-0.1-1-0.7-0.9-1.4c0.2-1-0.3-2-1.4-2.2l-2.9-0.6
					c-1.8-0.4-2.9,0.3-3.2,1.7l-0.2,1.1L365.6,110.2z"/>
				<g>
					<line class="st14" x1="374.8" y1="147.3" x2="422.3" y2="411.3"/>
					<line class="st14" x1="382.8" y1="411.3" x2="335.4" y2="147.3"/>
					<line class="st14" x1="338.5" y1="159" x2="377.1" y2="159"/>
					<line class="st14" x1="341.1" y1="176.7" x2="380.2" y2="176.7"/>
					<line class="st14" x1="344.7" y1="194.4" x2="383.4" y2="194.4"/>
					<line class="st14" x1="348.1" y1="212" x2="386.6" y2="212"/>
					<line class="st14" x1="350.2" y1="229.7" x2="389.2" y2="229.7"/>
					<line class="st14" x1="352.9" y1="247" x2="392.4" y2="247"/>
					<line class="st14" x1="356.9" y1="265" x2="395.8" y2="265"/>
					<line class="st14" x1="360" y1="282.7" x2="399" y2="282.7"/>
					<line class="st14" x1="363.2" y1="299.4" x2="402.2" y2="299.4"/>
					<line class="st14" x1="365.8" y1="316.1" x2="404.9" y2="316.1"/>
					<line class="st14" x1="368.9" y1="332.8" x2="407.9" y2="332.8"/>
					<line class="st14" x1="371.9" y1="349.5" x2="410.9" y2="349.5"/>
					<line class="st14" x1="374.8" y1="366.2" x2="413.8" y2="366.2"/>
					<line class="st14" x1="378.2" y1="382.9" x2="417.2" y2="382.9"/>
				</g>
				<g>
					<line class="st15" x1="335.4" y1="147.3" x2="287.5" y2="411.9"/>
					<line class="st15" x1="327" y1="411.9" x2="374.8" y2="147.3"/>
					<line class="st15" x1="371.7" y1="159" x2="333.2" y2="159"/>
					<line class="st15" x1="369.1" y1="176.7" x2="330" y2="176.7"/>
					<line class="st15" x1="365.6" y1="194.4" x2="326.8" y2="194.4"/>
					<line class="st15" x1="362.1" y1="212" x2="323.6" y2="212"/>
					<line class="st15" x1="359.3" y1="229.7" x2="320.4" y2="229.7"/>
					<line class="st15" x1="356.7" y1="247" x2="317.2" y2="247"/>
					<line class="st15" x1="352.9" y1="265" x2="313.9" y2="265"/>
					<line class="st15" x1="350.2" y1="282.7" x2="311.2" y2="282.7"/>
					<line class="st15" x1="347.2" y1="302.5" x2="308.2" y2="302.5"/>
					<line class="st15" x1="342.6" y1="322.3" x2="303.6" y2="322.3"/>
					<line class="st15" x1="339.3" y1="342.2" x2="300.2" y2="342.2"/>
					<line class="st15" x1="336.1" y1="362" x2="297" y2="362"/>
					<line class="st15" x1="331.9" y1="382" x2="292.9" y2="382"/>
				</g>
				<path class="st13" d="M375.4,107.9c0.2,1.8-6.2,4-7.9,4.2c-1.7,0.2-3.2-1.1-3.5-2.8c-0.2-1.8,1-3.4,2.7-3.6
					S375.1,106.1,375.4,107.9z"/>
				<path class="st16" d="M286.9,110.6c-2,0.4-3.4,2.3-3.1,4.4l3.5,19.7l1.3-0.2c1.2-2.6,3.8-4.4,7.1-4.4c3.1,0,5.9,2,7,4.8
					c1.8,4.7-1.1,9.5-5.8,10.3c-2.5,0.5-5-0.4-6.7-2.1l-1.3,0.2l3.9,21.8c0.4,2,2.3,3.4,4.4,3.1l19.7-3.5l-0.2-1.4
					c-2.6-1.2-4.4-3.8-4.4-7.1c0-3.1,2-5.9,4.8-7c4.7-1.8,9.5,1.1,10.3,5.8c0.5,2.5-0.4,5-2.1,6.7l0.2,1.4l21.8-3.9
					c2-0.4,3.4-2.3,3.1-4.4l-8.9-50.1c-0.4-2-2.3-3.4-4.4-3.1L286.9,110.6z"/>
				<path class="st4" d="M382.7,129.9c-2.1,2.9-5.8,6.7-10.1,10c-13.3,9.7-27.6,10.7-39.2-0.3c-0.5-0.5-0.5-1.2,0-1.7
					c0.4-0.4,1-0.5,1.5-0.2l0.1,0c7.6,4.4,14.4,6.2,22.9,2.6c11.2-4.8,19.2-16.5,18.3-15.4c1.4-1.8,4-2.2,5.8-0.8
					C383.6,125.5,384,128.1,382.7,129.9z"/>
				<g>
					<path class="st3" d="M369.9,131.6c2.8-2.5,6.3-7.4,6.3-7.4s1.7-2,5.1-0.5c2.8,1.2,2.2,4.4,2.2,4.4c-0.1,0.5-1,5.8-7.3,10.6
						C376.2,138.6,369.5,132,369.9,131.6z"/>
				</g>
				<path class="st4" d="M335.6,138.2c-0.9-1.1-1.2-4.8-1.7-4.8c-0.4,0-0.4,1.3-0.4,2c0,0.1-0.1,0.2-0.1,0.2c-0.1,0-0.2,0-0.2,0
					c-1-0.9-4-3.4-4.3-3.2c-0.3,0.2,1.2,2.1,1.8,2.8c0,0,0,0,0,0.1c0,0,0,0-0.1,0c-0.8-0.4-3.5-1.7-3.5-1.2c-0.1,0.5,2.3,2,3.2,2.6
					c0,0,0,0,0,0.1c0,0,0,0-0.1,0c-1-0.3-3.6-1-3.7-0.6c-0.1,0.5,2.5,1.6,3.4,1.9c0,0,0,0,0,0.1c0,0,0,0-0.1,0
					c-0.9-0.1-3.2-0.2-2.8,0.1c0.4,0.4,6,2.3,7.2,2.3C335.4,140.6,335.6,138.2,335.6,138.2z"/>
			</g>
			<rect x="118.7" y="201.3" class="st16" width="263.7" height="160.5"/>
			<rect x="132" y="213.3" class="st17" width="237" height="136.4"/>
			<g>
				<rect x="147.5" y="247.6" class="st18" width="60.7" height="87"/>
				<rect x="221.9" y="247.6" class="st18" width="60.7" height="87"/>
				<rect x="296.3" y="247.6" class="st18" width="60.7" height="87"/>
			</g>
			<rect x="132" y="213.3" class="st19" width="237" height="2.2"/>
			<g>
				<path class="st2" d="M95.4,385.3c0,0-5.4,6.2-6.4,7.2c-0.8,0.8-2,1.1-3.1,1.4c-0.4,0.1-0.8,0.5-1.2,0.8c-0.3,0.2-0.5,0.6-0.5,1
					c0.1,7,6.2,11.9,6.6,11.5c0.6-0.7,0.1-2.8-1-4.1c-1.2-1.4-1.5-3.3-0.9-5l0,0c0.4-1.4,1.2-2.6,2.2-3.6l4.7-4.4L95.4,385.3z"/>
				<path class="st20" d="M83.2,413.9h88.5c0.7,0,1.3-0.6,1.3-1.3l0,0c0-0.7-0.6-1.3-1.3-1.3H83.2c-0.7,0-1.3,0.6-1.3,1.3l0,0
					C81.9,413.3,82.5,413.9,83.2,413.9z"/>
				<path class="st2" d="M150.7,394.2l4.3,7.2c1.3,2.2,1.8,4.8,1.4,7.3c0,0,0,0,0,0c-0.2,1.4,0.8,2.7,2.2,2.8
					c4.6,0.1,13.6,0.3,13.9-0.1c1.3-2.2-4.4-3.1-8.8-4.6c-3-1-6.7-9.2-9-15.6l-3.5,2.2C150.8,393.5,150.7,393.9,150.7,394.2z"/>
				<path class="st21" d="M163.6,409.2c1.9,0,3.8-0.4,5.6-0.8c0.2,0,0.4,0,0.6,0c2.1,0.7,3.3,1.8,2.6,2.9c-0.3,0.5-10.8,0.2-15,0.1
					c-0.9,0-1.5-0.8-1.3-1.7l0.3-1.5C158.8,408.8,161.2,409.2,163.6,409.2z"/>
				<path class="st22" d="M135.3,312.9c-4.8-1-10.4,2.9-11.7,9.1c-0.7,3.5-1.7,16.6-1.6,27.3c0.1,4.1-1.9,8.1-5.4,10.2
					c-0.6,0.3-1.1,0.7-1.6,1.1c-2.3,2.1-13.3,15.8-20.1,25.1c-0.2,1.5,0,3.5,0.8,4.4c8.8-6.9,23.6-19.8,26.1-22.1
					c1.4-1.3,2.9-2.8,4.2-4.2c5.4-3.6,14.1-31.2,15.3-36.8C142.5,321,140,313.9,135.3,312.9z"/>
				<ellipse class="st23" cx="132.3" cy="273.2" rx="7.4" ry="9.6"/>
				<path class="st23" d="M130.5,274.2c-0.1-5.3-4.4-9.7-9.7-10c-4.7-0.3-8.7,2.6-10.2,6.7c-0.5,1.4-1.9,2.4-3.5,2.3
					c-0.6,0-1.3,0-2,0.2c-3.9,0.8-6.9,4.1-7.3,8c-0.4,3.5,1.3,6.7,4,8.5c1.1,0.8,1.8,2.1,2,3.4c0.9,6.3,6.6,10.9,13.2,10.2
					c5.6-0.6,10.1-5.2,10.6-10.9c0.3-3.5-0.9-6.6-3-9C128.2,282,130.6,278.4,130.5,274.2z"/>
				<path class="st24" d="M195.8,275.5c-1.9-0.4-3.6,0.4-4.6,1.8h-1.1v-10.2c0-1.9-1.5-3.4-3.4-3.4h-11.4v-1.1
					c1.4-1,2.2-2.7,1.8-4.6c-0.3-1.6-1.6-2.9-3.2-3.3c-2.9-0.7-5.4,1.5-5.4,4.3c0,1.5,0.7,2.8,1.9,3.6v1.1H160
					c-1.9,0-3.4,1.5-3.4,3.4v10.2h0.8c1-1.4,2.7-2.2,4.6-1.8c1.6,0.3,2.9,1.6,3.3,3.2c0.7,2.9-1.5,5.4-4.3,5.4
					c-1.5,0-2.8-0.7-3.6-1.9h-0.8v11.4c0,1.9,1.5,3.4,3.4,3.4h10.2v-0.8c-1.4-1-2.2-2.7-1.8-4.6c0.3-1.6,1.6-2.9,3.2-3.3
					c2.9-0.7,5.4,1.5,5.4,4.3c0,1.5-0.7,2.8-1.9,3.6v0.8h11.4c1.9,0,3.4-1.5,3.4-3.4v-11.4h1.1c0.8,1.1,2.1,1.9,3.6,1.9
					c2.8,0,4.9-2.5,4.3-5.4C198.7,277.2,197.4,275.9,195.8,275.5z"/>
				<path class="st23" d="M132.3,260.5c0,0,4.2,2.6,3.7,6.2c0,0,2.2-1.6,2.7-7C139,255.9,132.3,260.5,132.3,260.5z"/>
				<g>
					<path class="st4" d="M142.3,282c-0.1,1.7,0,3.4,0.2,5c0.2,1.6,0.6,3.3,1.2,4.6c0.3,0.7,0.6,1.3,0.9,1.7
						c0.3,0.4,0.5,0.6,0.5,0.6c-0.1,0-0.1,0.2,0.3,0c0.2,0,0.4-0.2,0.6-0.4c0.2-0.2,0.5-0.4,0.8-0.7c1.1-1.1,2.1-2.6,3-4.2
						c0.9-1.6,1.7-3.3,2.5-5.1c1.5-3.5,2.8-7.2,4-10.9l0,0c0.2-0.7,1-1.1,1.6-0.8c0.6,0.2,1,0.8,0.9,1.4c-0.5,3.9-1.2,7.9-2.2,11.8
						c-0.2,1-0.5,2-0.8,3c-0.3,1-0.6,2-1,3c-0.7,2-1.7,3.9-3.1,5.9c-0.4,0.5-0.8,1-1.2,1.5c-0.5,0.5-1,1-1.7,1.4l-0.5,0.3
						c-0.2,0.1-0.4,0.2-0.6,0.3c-0.4,0.2-0.8,0.3-1.3,0.4c-0.9,0.2-2,0.2-2.9,0c-2-0.4-3.4-1.5-4.4-2.5c-1-1-1.8-2.1-2.4-3.2
						c-2.3-4.3-3.2-8.7-3.4-13.2l0,0c-0.1-2.5,1.8-4.6,4.3-4.8c2.5-0.1,4.6,1.8,4.8,4.3C142.3,281.7,142.3,281.9,142.3,282z"/>
				</g>
				<path class="st4" d="M137,300.3c1.7-5,5-15.7,4.7-19.1c-0.2-2.2-2-3.9-4.3-3.9h-14.5c-2.4,0-4.4,1.9-4.4,4.3
					c-0.1,4.2,1.8,13.8,2.9,18.8H137z"/>
				<path class="st4" d="M134.1,323c1.7,6,15.2,48.8,10.5,50.1c-4.7,1.3-30.1-40.5-30.5-46.7c-0.3-5.9,3.1-12.3,7.8-13.6
					C126.7,311.5,132.4,317,134.1,323z"/>
				<path class="st25" d="M155.1,392.8c0.2-0.2,0.2-0.5,0.1-0.7c-3.6-10-8.5-22.7-9.5-25.1c-0.1-0.3-0.2-0.5-0.4-0.8
					c-1.8-12.7-9.9-38.5-11.2-43.1c-1.7-6-7.4-11.5-12.1-10.2c-4.7,1.3-8.1,7.7-7.8,13.6c0.2,3.9,10.3,21.7,18.9,34.2
					c1.8,2.6,3,5.6,3.5,8.8c0.4,2.2,1,4.3,1.7,5.9c1,2.4,7,11.4,12.4,19c0.2,0.2,0.4,0.4,0.7,0.3C152.8,394.6,154.1,394,155.1,392.8
					z"/>
				<path class="st26" d="M119.7,306.7c0.8-2.1,1-4.4,0.7-6.6c-0.7-5.1-2-14.8-1.9-18.9c0.1-2.2,1.9-3.9,4.1-3.9h2.2
					c0.8,1.9,2.6,3.4,5.3,3.4c2.7,0,4.4-1.5,5.2-3.4h2c-2.2,4.7-1.4,10.9,2.4,14.5c-0.7,2.5-1.3,5-1.7,7c-0.6,2.7-0.3,5.6,0.7,8.2
					c1.9,4.4,3.3,11.6,2.9,14.4c-15.3,4.3-25.8-3.3-25.8-3.3L119.7,306.7z"/>
				<path class="st27" d="M137.9,298.8c0.1-0.7,0.3-1.4,0.5-2.2c-2.2-0.5-4.4-1.3-6.5-2.2c-4.4-1.9-10.1-5.1-13.3-9.5
					c0.1,1.3,0.2,2.6,0.4,4.1c1.6,3.7,3.2,7.2,6.3,9.9c3.7,3.3,8.2,5.5,12.9,6.9C137.5,303.5,137.4,301.1,137.9,298.8z"/>
				<g>
					<polygon class="st4" points="132.3,278.3 125.7,277.6 127.8,270.4 132.1,270.9 					"/>
				</g>
				<path class="st2" d="M132.1,270.9l-4.3-0.5l-0.6,2.2c1,1.1,2.2,3.4,3.7,3.4c0.5,0,0.9-0.1,1.3-0.4L132.1,270.9z"/>
				<path class="st4" d="M132.2,274.4c-1.4,0-3-0.7-5.2-2.6c-1.2-1.1-2.2-3-2.2-4.2v-7h10.8c0,0,0.8,3.7,0,7.4
					C135.2,270.7,133.4,274.4,132.2,274.4z"/>
				<path class="st4" d="M126.7,266.2c0,1.4-0.7,2.5-1.5,2.5c-0.8,0-1.7-1.8-1.7-3.2c0-1.4,0.9-1.8,1.7-1.8
					C126.1,263.7,126.7,264.8,126.7,266.2z"/>
				<path class="st23" d="M123.6,261.4c0-2.2,1.8-4,4-4l3.7,0c1,0,2.1-0.3,2.9-0.8c1.3-0.7,2.9-0.5,3.8,0.7c1,1.3,1.4,3-1,4.6
					c-1.2,0.8-3-0.1-4.1,0.3c-0.1,0-0.1,0-0.2,0h-3.2c-1.1,0-2,0.9-2,2c0,0.7-0.6,1.3-1.3,1.3h-0.1l-0.5-1.7l-1.8,2.4V261.4z"/>
				<path class="st4" d="M159.2,269.1c0,0,0.8,3.7-0.3,4.3c-1.1,0.6-1.9,0.8-2.8-0.7s-1.5-4-1.6-5.6s1-4.3,1.3-4.5
					c1.1-0.8,0.9,2.1,0.8,3.5c0,1.4,0,3,0.7,2.8c0.7-0.2,0.6-2.9,1.3-3.3C159.3,265.2,159.2,269.1,159.2,269.1z"/>
				<path class="st4" d="M175.3,294.6c0,0-3.8-0.6-4.3,0.5c-0.6,1.1-0.8,1.9,0.8,2.8c1.6,0.9,4.1,1.4,5.7,1.3c1.6,0,4.2-1.2,4.4-1.5
					c0.7-1.1-2.1-0.8-3.5-0.7c-1.4,0.1-3,0.1-2.8-0.6c0.1-0.7,2.8-0.7,3.3-1.4C179.2,294.3,175.3,294.6,175.3,294.6z"/>
				<path class="st23" d="M134.9,260.4c-0.4,1.6,0.2,2.5-5.1,5c-5.3,2.5-6.9,1.4-8.6,4.1c0,0,0.7-4.5,3.6-6c2.9-1.5,8-2.5,9.6-6.1
					C134.5,257.4,135.2,259.3,134.9,260.4z"/>
				<g>
					<path class="st4" d="M125.8,281.3c0,0,0-0.1,0-0.1L125.8,281.3l0.1,0.1c0.1,0.2,0.1,0.3,0.2,0.5c0.2,0.3,0.3,0.7,0.5,1.1
						c0.2,0.3,0.4,0.7,0.7,1.1c0.3,0.3,0.6,0.7,0.8,1c0.7,0.6,1.2,1.4,2,1.9l1.1,0.9l1.3,0.8c3.5,2.1,7.7,3.5,12.1,4.6
						c1.1,0.2,2.2,0.4,3.4,0.6c1.1,0.2,2.2,0.4,3.4,0.5l3.5,0.3l1.7,0.2l1.8,0.1l3.5,0.2c1.2,0.1,2.4,0.1,3.5,0.1c2.4,0,4.7,0,7.1,0
						l0.1,0c0.7,0,1.3,0.6,1.3,1.3c0,0.6-0.5,1.1-1,1.3c-2.4,0.5-4.8,0.9-7.1,1.4c-1.2,0.3-2.4,0.4-3.6,0.5l-3.6,0.4l-1.8,0.2
						l-1.8,0.1l-3.7,0.1c-1.2,0.1-2.5,0-3.7-0.1c-1.3-0.1-2.5-0.1-3.8-0.2c-5-0.6-10.2-1.6-15.1-4.1l-1.8-1
						c-0.6-0.4-1.2-0.8-1.8-1.2c-1.2-0.8-2.2-1.8-3.3-2.8c-0.5-0.6-1-1.1-1.5-1.7c-0.5-0.6-0.9-1.3-1.3-1.9
						c-0.4-0.7-0.8-1.4-1.1-2.1l-0.4-1.2l-0.2-0.7l-0.1-0.4l-0.1-0.6c-0.4-2.5,1.4-4.8,3.8-5.2C123.1,277.1,125.5,278.9,125.8,281.3
						z"/>
				</g>
				<path class="st23" d="M133.9,260.7c0,0,0.2,5.4,4.9,8c0,0-2.1-4.1-1.9-6.8S133.6,258.8,133.9,260.7z"/>
				<path class="st21" d="M81.9,397c-0.2-0.4,0-0.9,0.4-1.2c0.3-0.2,1.2-0.8,1.9-1.2c0.3-0.2,0.7,0,0.7,0.4c0.4,3.9,2.2,7.4,5.5,9.1
					c0.9,1.1,1,3.1,0.5,3.7c-0.1,0.1-1.7-0.4-2.9-1.9C82.2,399.3,81.9,397,81.9,397z"/>
			</g>
			<g>
				<path class="st4" d="M431.2,376.8c-0.2,0-0.4-0.1-0.7-0.1c-0.5-0.1-1.2-0.1-1.8-0.1c-1,0.1-2-0.1-3-0.6l-3.8-1.9
					c-1.6-0.8-3.3,0.9-2.6,2.5l0,0c0.1,0.1,0.2,0.3,0.3,0.3l4.5,2c1.3,0.6,2.5,1.5,3.4,2.6l1.3,1.6
					C431.5,381.4,431.2,378.3,431.2,376.8z"/>
				<path class="st28" d="M429.6,389.9c0.2-2.2-0.8-5.8-1.3-7c1.2-2.1,1.2-4.4,0.5-6.5c0.6,0,1.3-0.1,1.8,0.1
					c0.7,0.2,2.4,0.4,3.1,0.5c0.5,0.1,0.8,0.5,0.8,1c0,0-2.2,15.6-2.6,15.3C431,392.9,429.4,391.7,429.6,389.9z"/>
				<path class="st20" d="M285.3,415h55.2c0.7,0,1.3-0.6,1.3-1.3v0c0-0.7-0.6-1.3-1.3-1.3h-55.2c-0.7,0-1.3,0.6-1.3,1.3v0
					C284,414.4,284.6,415,285.3,415z"/>
				<path class="st20" d="M375.4,415h60c0.8,0,1.4-0.6,1.4-1.4l0,0c0-0.8-0.6-1.4-1.4-1.4h-60c-0.8,0-1.4,0.6-1.4,1.4l0,0
					C374,414.4,374.6,415,375.4,415z"/>
				<path class="st29" d="M348.1,361.3c-1.2,4.8-9.7,42.5-8,42.5c1.5,0,17-35.2,18.2-40c1.2-4.8-0.1-9.2-2.9-10
					C352.5,353.2,349.3,356.5,348.1,361.3z"/>
				<path class="st29" d="M366.7,323c-4.1,5-22.4,37.7-18.5,40.9c3.9,3.2,29.3-23.9,33.4-28.9c4.1-5,3.5-12.1-0.4-15.3
					C377.3,316.6,370.8,318,366.7,323z"/>
				<path class="st4" d="M342.2,409.1c0-0.2,0-0.5,0-0.7c0-0.6-0.1-1.2-0.2-1.8c-0.2-1-0.2-2,0.1-3l1.3-4c0.5-1.7-1.3-3.2-2.9-2.2
					l0,0c-0.1,0.1-0.2,0.2-0.3,0.4l-1.3,4.8c-0.4,1.4-1.1,2.6-2.1,3.7l-1.4,1.5C337.6,410,340.6,409.2,342.2,409.1z"/>
				<path class="st28" d="M328.9,409.4c2.2-0.1,5.6-1.6,6.7-2.3c2.3,0.8,4.6,0.5,6.5-0.5c0.1,0.6,0.2,1.2,0.2,1.8
					c0,0.7-0.1,2.4-0.1,3.1c0,0.5-0.4,0.9-0.9,0.9c0,0-15.8,0.2-15.5-0.4C326.2,411.2,327.1,409.5,328.9,409.4z"/>
				<path class="st30" d="M358.2,363.9c-0.7,3-10,25.9-15,36.6c-1.5-0.6-2.3-0.5-3.9-1c2-10,5.4-32.5,6.6-37.3
					c0.5-6.7,17-34.5,20.8-39.1c4.1-5,10.6-6.5,14.4-3.3c3.9,3.2,4.5,10.3,0.4,15.3C378.9,338.3,358.7,361.9,358.2,363.9z"/>
				<path class="st31" d="M381.2,319.8c-3.9-3.2-10.3-1.7-14.4,3.3c-0.3,0.4-0.8,1-1.3,1.7c3.7,7.4,5,15.5,4.8,23.8
					c5.1-6.1,10.1-12,11.3-13.5C385.7,330,385.1,322.9,381.2,319.8z"/>
				<path class="st11" d="M378.1,364.1C378.1,364.1,378.1,364.1,378.1,364.1C378.1,364.1,378.1,364,378.1,364.1
					c-0.2-0.3-0.3-0.7-0.4-1c-2.7-8.1-2-37.5-1.1-43.5c0.2-1.6,0.7-3.1,1.3-4.4l8.7,4.7c2.2,2.5,4.8,4.7,7.7,6.4
					c0.4,0.3-0.1-0.9,0.3-0.7c-1.3,7.7-2.9,23.1-3.5,30.8c-0.1,1.7,0.8,3.4,2.5,4.1c8.1,3.4,22.6,10,30.7,14.4l-0.3,4.6
					c-11.8-2.5-35.3-9.5-38.9-10.5C381.8,368.1,379.2,366.1,378.1,364.1z"/>
				<g>
					<path class="st2" d="M370.9,289.8c0,0.5-0.1,0.7-0.1,1.1c0,0.3-0.1,0.6-0.1,0.9c-0.1,0.6-0.2,1.2-0.3,1.7
						c-0.3,1.1-0.6,2.2-1,3.3c-0.8,2.2-1.8,4.2-3.2,6.2c-2.6,3.8-6.5,6.9-10.7,8.5c-2.1,0.9-4.2,1.4-6.3,1.7
						c-2.1,0.3-4.2,0.4-6.3,0.3c-4.1-0.2-8.1-1-12-2c-0.7-0.2-1.1-0.9-0.9-1.7c0.2-0.6,0.8-1,1.4-1l0,0c3.8,0.3,7.6,0.3,11.3-0.1
						c3.6-0.5,7.1-1.4,10-3.2c2.9-1.7,5.1-4,6.5-6.8c0.7-1.4,1.3-2.9,1.7-4.5c0.2-0.8,0.3-1.6,0.4-2.4c0.1-0.4,0.1-0.8,0.1-1.2
						c0-0.2,0-0.4,0-0.6c0-0.2,0-0.4,0-0.4c0-2.6,2.2-4.7,4.7-4.6C368.8,285.1,370.9,287.2,370.9,289.8z"/>
				</g>
				<path class="st32" d="M356.5,296.6c0.8-1.7,3.9-8.5,4.3-10.1l0-0.1c0-0.1,0.1-0.3,0.1-0.4c0.8-2.5,3.5-3.8,5.9-3
					c2.5,0.8,3.8,3.5,3,5.9c-0.8,2.3-1.6,4.2-2.5,6.3c-0.6,1.3-1.3,2.7-2.1,4C364.6,298.6,356.5,296.6,356.5,296.6z"/>
				<path class="st4" d="M366.9,328.7c3.9,3.2,20.1,2.6,26.2,2.2c1.5-0.1,2.7-1.5,2.4-3c-0.6-3.8-3.3-10.4-4.9-17.2
					c-2.3-9.9-4.5-20.8-5.7-26.7c-0.5-2.4-2.8-4.1-5.3-3.6l-14.8,2.4c-2.3,0.4-3.9,2.4-3.7,4.7c0.4,4.8,1.1,13.1,1.7,21.2
					C363.6,317,362.8,325.3,366.9,328.7z"/>
				<path class="st33" d="M364.8,282.8l2.4-0.4c1.2,1.8,3.2,3,5.9,2.5c2.8-0.5,4.3-2.2,4.8-4.3l2.2-0.4c2.2-0.4,4.4,1.1,4.8,3.3
					c1.1,5.8,3.4,17,5.7,27.1c1.6,6.9,4.3,13.3,4.9,17.2c0.2,1.5-0.9,2.9-2.4,3c-6.1,0.4-22.2,1-26.1-2.2c-4.2-3.4-3.3-11.7-4-20
					c-0.7-8.2-1.3-16.6-1.7-21.3C361,285.2,362.6,283.2,364.8,282.8z"/>
				<path class="st34" d="M372.6,274.8l0.3-0.1c2.1-0.6,3.3-2.8,2.7-4.9l-1.6-5.6l-4.1,1.2L372.6,274.8z"/>
				<g>
					<polygon class="st4" points="369.3,282.8 376.4,282.3 376.7,281.3 372.5,273.8 367.6,275.9 					"/>
				</g>
				<path class="st2" d="M367.6,275.9l5-2.1l1.7,3c-0.8,1.6-1.7,3.4-3.6,4c-0.6,0.2-1.3,0.1-1.8,0L367.6,275.9z"/>
				<path class="st4" d="M370,279L370,279c3.5-1,5.5-4.6,4.5-8.1l-2-7l-10.8,3.1c0,0,1.6,5.5,3.4,8.9
					C366.5,278.5,368.3,279.5,370,279z"/>
				
					<rect x="371.9" y="266.7" transform="matrix(-0.9612 0.2758 -0.2758 -0.9612 805.1265 421.1224)" class="st34" width="2.1" height="1"/>
				<path class="st4" d="M372.3,270.1c0.4,1.4,1.4,2.3,2.2,2.1c0.8-0.2,1.2-2.3,0.8-3.6s-1.4-1.5-2.2-1.3
					C372.2,267.4,371.9,268.7,372.3,270.1z"/>
				<path class="st34" d="M361.8,270.1c-0.5-0.8-0.8-1.7-0.9-2.6c0,0-0.9-3.1,0.1-4.1c1-0.9,3.1-0.7,4.3-0.8c0.9-0.1,3.6-1,3.6-1
					c2.2-0.6,4.5,0.6,5.1,2.8l0.2,0.8l-1.3,2.2l0,1.8l-0.1,0c-0.7,0.2-1.4-0.2-1.7-0.8c-0.4-1.1-1.4-1.8-2.6-1.5l-3.2,0.9
					c-2,0.6-2.7,1.9-2.3,3.4l0.5,1.2L361.8,270.1z"/>
				<path class="st35" d="M335,286.6l-0.7-1.7c1.1-1.7,1.5-3.9,0.8-6c-1.2-3.6-5.5-5.7-9-4.4c-3.6,1.4-5.4,5.4-4,9
					c0.9,2.2,2.7,3.7,4.8,4.2l0.7,1.7l-18.3,7.1c-1.6,0.6-2.4,2.4-1.8,4l7.1,18.1l-1,0.4c-1.7-1.1-3.9-1.5-6-0.8
					c-3.6,1.2-5.7,5.5-4.4,9c1.4,3.6,5.4,5.4,9,4c2.2-0.9,3.7-2.7,4.2-4.8l1-0.4l7.1,18.1c0.6,1.6,2.4,2.4,4,1.8l43.6-17
					c1.6-0.6,2.4-2.4,1.8-4l-17-43.6c-0.6-1.6-2.4-2.4-4-1.8L335,286.6z"/>
				<path class="st4" d="M386.8,284.6c0.6,11.7-5.9,25.6-19.7,29c-11,2.7-22.8-0.3-33.2-4.8c-0.7-0.3-1-1.1-0.7-1.8
					c0.3-0.6,0.9-0.9,1.5-0.8l0,0c14.5,3.1,33,5.1,39.8-8.1c3.5-6.5,2.8-14.3,2.9-13.2C377.4,278.8,386.5,278.5,386.8,284.6z"/>
				<g>
					<path class="st32" d="M376,293.9c1.1-5,1.2-9,1.3-9.1l0,0.1l0.8-3.2c0,0,1.5-2.5,5.6-1.6c3.3,0.8,3.3,4.5,3.3,4.5
						c0,0.5,1.2,4.3-2,12.4C385,297.2,375.9,294.6,376,293.9z"/>
				</g>
			</g>
			<path class="st4" d="M335.5,306.5c-0.9-1.1-1.2-4.8-1.7-4.8c-0.4,0-0.4,1.3-0.4,2c0,0.1-0.1,0.2-0.1,0.2c-0.1,0-0.2,0-0.2,0
				c-1-0.9-4-3.4-4.3-3.2c-0.3,0.2,1.2,2.1,1.8,2.8c0,0,0,0,0,0.1c0,0,0,0-0.1,0c-0.8-0.4-3.5-1.7-3.5-1.2c-0.1,0.5,2.3,2,3.2,2.6
				c0,0,0,0,0,0.1c0,0,0,0-0.1,0c-1-0.3-3.6-1-3.7-0.6c-0.1,0.5,2.5,1.6,3.4,1.9c0,0,0,0,0,0.1c0,0,0,0-0.1,0
				c-0.9-0.1-3.2-0.2-2.8,0.1c0.4,0.4,6,2.3,7.2,2.3C335.4,308.9,335.5,306.5,335.5,306.5z"/>
			<rect x="228" y="255.1" class="st36" width="47.8" height="11.2"/>
			<rect x="228" y="271.9" class="st36" width="47.8" height="11.2"/>
			<rect x="228" y="288.7" class="st36" width="47.8" height="11.2"/>
			<rect x="228" y="305.5" class="st36" width="47.8" height="11.2"/>
			<rect x="147.4" y="226" class="st36" width="209.8" height="12.3"/>
		</g>
		<path class="st26" d="M243.8,231.9h-64.2c-3.2,0-5.9-2.6-5.9-5.9v-14.8c0-3.2,2.6-5.9,5.9-5.9h64.2c3.2,0,5.9,2.6,5.9,5.9V226
			C249.7,229.3,247.1,231.9,243.8,231.9z"/>
		
			<rect x="231.1" y="228.8" transform="matrix(0.7071 0.7071 -0.7071 0.7071 232.4977 -97.6368)" class="st26" width="6.1" height="6.1"/>
		<rect x="182.8" y="212" class="st17" width="56.3" height="2.1"/>
		<rect x="182.8" y="217.6" class="st17" width="56.3" height="2.1"/>
		<rect x="182.8" y="223.1" class="st17" width="56.3" height="2.1"/>
		<g>
			
				<rect x="230.6" y="312.9" transform="matrix(-1.836970e-16 1 -1 -1.836970e-16 549.6428 82.2483)" class="st37" width="6.1" height="6.1"/>
			<circle class="st24" cx="217.5" cy="332.8" r="24"/>
			<g>
				<path class="st17" d="M210.3,332.9c0,1.1-0.9,1.9-1.9,1.9s-1.9-0.9-1.9-1.9s0.9-1.9,1.9-1.9S210.3,331.8,210.3,332.9z"/>
				<path class="st17" d="M218.8,332.9c0,1.1-0.9,1.9-1.9,1.9c-1.1,0-1.9-0.9-1.9-1.9s0.9-1.9,1.9-1.9
					C217.9,330.9,218.8,331.8,218.8,332.9z"/>
				<path class="st17" d="M227.3,332.9c0,1.1-0.9,1.9-1.9,1.9s-1.9-0.9-1.9-1.9s0.9-1.9,1.9-1.9S227.3,331.8,227.3,332.9z"/>
			</g>
		</g>
	</g>
</g>
<g id="DESIGNED_BY_FREEPIK">
</g>
</svg>
